<svg width="30" height="30" viewBox="0 0 30 30" fill="none" xmlns="http://www.w3.org/2000/svg">
<path fill-rule="evenodd" clip-rule="evenodd" d="M15.223 5C15.5841 5 15.8769 5.29274 15.8769 5.65385L15.8769 21.4231C15.8769 22.0503 15.7766 22.6961 15.4183 23.1974C15.0287 23.7427 14.4224 24 13.6842 24C12.9461 24 12.3398 23.7427 11.9503 23.1973C11.5921 22.696 11.4919 22.0502 11.4919 21.4231C11.4919 21.062 11.7847 20.7692 12.1458 20.7692C12.5069 20.7692 12.7996 21.062 12.7996 21.4231C12.7996 21.9498 12.8917 22.2656 13.0144 22.4373C13.1056 22.565 13.2685 22.6923 13.6842 22.6923C14.0999 22.6923 14.263 22.565 14.3543 22.4372C14.4771 22.2654 14.5692 21.9497 14.5692 21.4231L14.5692 5.65385C14.5692 5.29274 14.8619 5 15.223 5Z" fill="#B2BAC2"/>
<path fill-rule="evenodd" clip-rule="evenodd" d="M11.9897 15.6544H12.7944C13.2805 15.1942 14.1896 14.8845 15.2309 14.8845C16.2722 14.8845 17.1813 15.1942 17.6673 15.6544H18.472C19.0274 15.1942 20.0664 14.8845 21.2565 14.8845C22.4465 14.8845 23.4855 15.1942 24.041 15.6544H24.4617C24.2516 10.947 20.1992 7.19238 15.2308 7.19238C10.2625 7.19238 6.21009 10.947 6 15.6544H6.42068C6.97616 15.1942 8.01514 14.8845 9.20521 14.8845C10.3953 14.8845 11.4343 15.1942 11.9897 15.6544Z" fill="#4E74FB"/>
</svg>
