<svg width="133" height="38" viewBox="0 0 133 38" fill="none" xmlns="http://www.w3.org/2000/svg">
<rect x="0.25" y="0.25" width="132.5" height="37.5" rx="18.75" fill="white"/>
<rect x="0.25" y="0.25" width="132.5" height="37.5" rx="18.75" stroke="#BFC0C2" stroke-width="0.5"/>
<path fill-rule="evenodd" clip-rule="evenodd" d="M26.2027 13.0697C28.7247 15.5918 28.7247 19.6809 26.2027 22.203C23.6807 24.7251 19.5916 24.7251 17.0696 22.203C14.5476 19.6809 14.5476 15.5918 17.0696 13.0697C19.5916 10.5476 23.6807 10.5476 26.2027 13.0697ZM27.4366 22.6035C30.0112 19.6033 29.8776 15.0786 27.0357 12.2366C24.0536 9.25445 19.2187 9.25445 16.2366 12.2366C13.2545 15.2188 13.2545 20.0539 16.2366 23.0361C19.0786 25.8782 23.6035 26.0117 26.6036 23.4366L29.9944 26.8275C30.2245 27.0575 30.5974 27.0575 30.8275 26.8275C31.0575 26.5974 31.0575 26.2245 30.8275 25.9944L27.4366 22.6035Z" fill="#060B11"/>
<path d="M45.58 20.925L44.695 22.035C43.45 21.345 41.83 19.635 41.41 18.255C41.065 19.68 39.73 21.45 38.11 22.335L37.15 21.195C39.28 20.01 40.615 17.85 40.615 15.165V14.46H37.825V13.215H44.92V14.46H42.205V15.165C42.205 17.88 43.63 19.845 45.58 20.925ZM47.83 11.82V17.055H49.855V18.345H47.83V25.185H46.285V11.82H47.83ZM60.3585 11.82V15.72H62.3385V17.01H60.3585V21.51H58.8135V11.82H60.3585ZM60.7485 24.78H51.8085V20.535H53.3535V23.535H60.7485V24.78ZM57.7185 18.225L56.8335 19.425C55.7085 18.945 54.3435 17.745 53.7585 16.455C53.3535 17.85 51.9285 19.275 50.5935 19.815L49.6635 18.585C51.5385 17.85 52.9485 16.08 52.9485 13.995V12.57H54.5385V13.935C54.5385 16.05 56.1735 17.715 57.7185 18.225ZM67.7675 20.175H76.6025V21.405H73.0175C73.1825 22.95 75.3725 23.925 77.2625 24.135L76.5575 25.305C74.8325 25.17 72.6425 23.865 72.1775 22.68C71.6675 23.865 69.7175 25.065 67.7825 25.275L67.0775 24.135C69.1625 24 71.0675 22.965 71.3675 21.405H67.7675V20.175ZM66.2975 15.36V14.115H73.3025V15.36H70.6325C70.9325 16.89 72.2525 17.805 73.6325 18.18L72.8375 19.38C71.7725 19.035 70.3925 18.06 69.8075 16.905C69.3425 18.105 67.9775 19.305 66.5975 19.755L65.7275 18.57C67.3925 18.015 68.6975 16.935 68.9525 15.36H66.2975ZM78.3425 16.29H76.3775V19.53H74.8325V11.82H76.3775V15H78.3425V16.29ZM67.9025 13.275V12.03H71.6975V13.275H67.9025ZM88.906 11.82V17.04H90.976V18.315H88.906V25.185H87.361V11.82H88.906ZM78.676 17.535C78.676 14.715 79.951 12.855 82.096 12.855C84.241 12.855 85.486 14.715 85.486 17.55C85.486 20.355 84.241 22.215 82.096 22.215C79.951 22.215 78.676 20.355 78.676 17.535ZM84.031 17.535C84.031 15.39 83.236 14.115 82.096 14.115C80.971 14.115 80.191 15.39 80.191 17.535C80.191 19.68 80.971 20.97 82.096 20.97C83.236 20.97 84.031 19.68 84.031 17.535ZM101.614 19.515H97.8345V22.26H103.129V23.49H91.0545V22.26H96.3045V19.515H92.5695V12.78H94.0995V14.925H100.084V12.765H101.614V19.515ZM100.084 18.285V16.14H94.0995V18.285H100.084ZM114.593 25.185H113.063V11.82H114.593V25.185ZM110.498 13.23C110.408 17.37 108.338 20.565 104.483 22.68L103.523 21.51C106.598 20.1 108.593 17.295 108.848 14.49H104.303V13.23H110.498Z" fill="#060B11"/>
</svg>
