<svg width="20" height="21" viewBox="0 0 20 21" fill="none" xmlns="http://www.w3.org/2000/svg">
<g clip-path="url(#clip0_1039_5143)">
<rect y="1" width="20" height="20" rx="3" fill="#E3ECF2"/>
<path d="M0 4C0 2.34315 1.34315 1 3 1H17C18.6569 1 20 2.34315 20 4V6.5H0V4Z" fill="#FA5C39"/>
<rect x="3.15771" y="9" width="3.15789" height="3" rx="0.2" fill="#9EA5AE"/>
<rect x="3.15771" y="15" width="3.15789" height="3" rx="0.2" fill="#9EA5AE"/>
<rect x="8.4209" y="9" width="3.15789" height="3" rx="0.2" fill="#9EA5AE"/>
<rect x="8.4209" y="15" width="3.15789" height="3" rx="0.2" fill="#9EA5AE"/>
<rect x="13.6841" y="9" width="3.15789" height="3" rx="0.2" fill="#9EA5AE"/>
<rect x="13.6841" y="15" width="3.15789" height="3" rx="0.2" fill="#9EA5AE"/>
<rect x="4.21045" width="2.10526" height="5" rx="1.05263" fill="#3A3A3A"/>
<rect x="13.6841" width="2.10526" height="5" rx="1.05263" fill="#3A3A3A"/>
</g>
<defs>
<clipPath id="clip0_1039_5143">
<rect width="20" height="21" fill="white"/>
</clipPath>
</defs>
</svg>
