<svg width="71" height="39" viewBox="0 0 71 39" fill="none" xmlns="http://www.w3.org/2000/svg">
<path d="M21.445 18.615H19.915V15.555H17.47V14.265H19.915V11.82H21.445V18.615ZM21.895 25.08H12.73V21.615H19.93V20.565H12.685V19.32H21.46V22.755H14.275V23.865H21.895V25.08ZM18.34 17.265L17.485 18.42C16.375 17.985 15.01 16.95 14.41 15.645C14.005 17.04 12.625 18.225 11.26 18.765L10.345 17.61C12.22 16.92 13.6 15.39 13.6 13.32V12.255H15.19V13.26C15.19 15.345 16.855 16.8 18.34 17.265ZM34.0935 22.56C34.0935 24.135 32.4285 25.185 29.5335 25.185C26.6535 25.185 25.0035 24.135 25.0035 22.56C25.0035 20.955 26.6535 19.905 29.5335 19.905C32.4285 19.905 34.0935 20.955 34.0935 22.56ZM23.4435 13.95V12.675H30.4785V13.95H27.8085V13.995C27.8085 15.99 29.2935 17.46 30.8535 17.94L29.9985 19.155C28.9035 18.72 27.5835 17.67 27.0135 16.425C26.6235 17.73 25.1835 19.035 23.8485 19.545L22.9185 18.345C24.7935 17.655 26.2185 16.05 26.2185 14.07V13.95H23.4435ZM30.2685 16.335V15.06H32.4435V11.82H33.9885V19.86H32.4435V16.335H30.2685ZM29.5335 21.165C27.6885 21.165 26.5935 21.675 26.5935 22.56C26.5935 23.43 27.6885 23.94 29.5335 23.94C31.4235 23.94 32.5185 23.43 32.5185 22.56C32.5185 21.675 31.4235 21.165 29.5335 21.165ZM42.497 19.68C42.497 21.285 41.222 22.53 39.317 22.53C37.397 22.53 36.107 21.33 36.107 19.68C36.107 18.09 37.397 16.83 39.317 16.83C41.222 16.83 42.497 18.045 42.497 19.68ZM40.982 19.68C40.982 18.735 40.277 18.09 39.317 18.09C38.342 18.09 37.652 18.735 37.652 19.68C37.652 20.61 38.342 21.27 39.317 21.27C40.352 21.27 40.982 20.61 40.982 19.68ZM43.172 16.185H35.402V14.94H43.172V16.185ZM37.292 13.86V12.6H41.342V13.86H37.292ZM45.887 11.82V17.31H47.957V18.6H45.887V25.185H44.342V11.82H45.887ZM59.0455 25.185H57.5155V11.82H59.0455V25.185ZM54.9505 13.23C54.8605 17.37 52.7905 20.565 48.9355 22.68L47.9755 21.51C51.0505 20.1 53.0455 17.295 53.3005 14.49H48.7555V13.23H54.9505Z" fill="#737679"/>
<line x1="10.5" y1="28.5" x2="60.5" y2="28.5" stroke="#BFC0C2"/>
</svg>
