<svg width="87" height="39" viewBox="0 0 87 39" fill="none" xmlns="http://www.w3.org/2000/svg">
<path d="M18.58 20.925L17.695 22.035C16.45 21.345 14.83 19.635 14.41 18.255C14.065 19.68 12.73 21.45 11.11 22.335L10.15 21.195C12.28 20.01 13.615 17.85 13.615 15.165V14.46H10.825V13.215H17.92V14.46H15.205V15.165C15.205 17.88 16.63 19.845 18.58 20.925ZM20.83 11.82V17.055H22.855V18.345H20.83V25.185H19.285V11.82H20.83ZM33.3585 11.82V15.72H35.3385V17.01H33.3585V21.51H31.8135V11.82H33.3585ZM33.7485 24.78H24.8085V20.535H26.3535V23.535H33.7485V24.78ZM30.7185 18.225L29.8335 19.425C28.7085 18.945 27.3435 17.745 26.7585 16.455C26.3535 17.85 24.9285 19.275 23.5935 19.815L22.6635 18.585C24.5385 17.85 25.9485 16.08 25.9485 13.995V12.57H27.5385V13.935C27.5385 16.05 29.1735 17.715 30.7185 18.225ZM49.5275 25.02H40.5425V20.46H44.2475V19.14H38.9975V17.895H51.0725V19.14H45.7775V20.46H49.5275V25.02ZM50.5325 15.87L49.8575 17.085C48.0125 16.8 45.7025 15.615 45.0425 14.115C44.3825 15.615 42.2075 16.77 40.2275 17.055L39.5675 15.87C41.7425 15.63 44.2475 14.295 44.2475 12.345V11.925H45.8525V12.345C45.8525 14.295 48.6425 15.75 50.5325 15.87ZM47.9975 23.79V21.66H42.0725V23.79H47.9975ZM62.536 25.185H61.006V11.82H62.536V25.185ZM58.441 13.23C58.351 17.37 56.281 20.565 52.426 22.68L51.466 21.51C54.541 20.1 56.536 17.295 56.791 14.49H52.246V13.23H58.441ZM75.0645 25.185H73.5345V11.82H75.0645V25.185ZM70.9695 13.23C70.8795 17.37 68.8095 20.565 64.9545 22.68L63.9945 21.51C67.0695 20.1 69.0645 17.295 69.3195 14.49H64.7745V13.23H70.9695Z" fill="#737679"/>
<line x1="11" y1="28.5" x2="76" y2="28.5" stroke="#BFC0C2"/>
</svg>
